<svg width="1460" height="940" viewBox="0 0 1460 940" fill="none" xmlns="http://www.w3.org/2000/svg">
<path d="M1358.67 442.151C1359.51 433.673 1359.94 425.195 1359.94 416.395C1359.94 299.847 1285.38 205.407 1193.37 205.407C1162.95 205.407 1134.57 215.71 1110 233.739C1077.89 130.177 998.327 56.7713 905.129 56.7713C841.161 56.7713 783.632 91.3277 743.387 146.597C706.192 59.3469 633.412 0 549.618 0C441.677 0 351.952 98.5181 333.228 228.373C316.791 222.041 299.337 218.607 281.291 218.607C184.025 218.607 104.976 317.662 103.62 440.434C41.6852 487.546 0 573.401 0 671.168C0 819.052 95.4863 940 212.239 940H1247.76C1364.51 940 1460 819.052 1460 671.168C1460 574.689 1419.33 489.693 1358.67 442.258V442.151Z" fill="#005ECD"/>
</svg>
