<svg width="299" height="152" viewBox="0 0 299 152" fill="none" xmlns="http://www.w3.org/2000/svg">
<path d="M277.644 71.3339C277.814 69.9751 277.899 68.5994 277.899 67.1897C277.899 48.3881 262.664 33.1533 243.862 33.1533C237.663 33.1533 231.837 34.8177 226.827 37.722C220.271 21.0095 204 9.17149 184.96 9.17149C171.899 9.17149 160.129 14.7593 151.909 23.6591C144.317 9.57911 129.438 0 112.318 0C90.2552 0 71.9291 15.8973 68.1076 36.8389C64.7447 35.8198 61.178 35.2593 57.4923 35.2593C37.6206 35.2593 21.4684 51.2245 21.1796 71.0452C8.52624 78.6371 0 92.4963 0 108.258C0 132.121 19.5152 151.635 43.3783 151.635H254.97C278.833 151.635 298.348 132.121 298.348 108.258C298.348 92.7001 290.043 78.9768 277.627 71.3169L277.644 71.3339Z" fill="#007069"/>
<path opacity="0.2" d="M278.279 71.208C278.449 69.8492 278.534 68.4735 278.534 67.0638C278.534 55.1918 272.436 44.7465 263.231 38.6661C244.514 71.8533 216.575 99.232 183.115 117.184C156.45 131.808 127.186 141.625 97.7346 151.527H255.622C279.485 151.527 299 132.012 299 108.149C299 92.5911 290.695 78.8679 278.279 71.208Z" fill="#06346A"/>
</svg>
