<svg width="938" height="588" viewBox="0 0 938 588" fill="none" xmlns="http://www.w3.org/2000/svg">
<path d="M293.434 151.165H288.339V334.595H293.434V151.165Z" fill="#FAB61D"/>
<path d="M490.844 0.922119H485.749V278.683H490.844V0.922119Z" fill="#6BB42D"/>
<path d="M424.503 572.867C506.252 572.867 572.522 506.597 572.522 424.849C572.522 343.101 506.252 276.831 424.503 276.831C342.754 276.831 276.484 343.101 276.484 424.849C276.484 506.597 342.754 572.867 424.503 572.867Z" fill="#EAEAEA"/>
<path opacity="0.1" d="M424.503 276.831C506.249 276.831 572.522 343.104 572.522 424.849H276.484C276.484 343.104 342.757 276.831 424.503 276.831Z" fill="#1D1D1B"/>
<path d="M470.021 427.142H458.829V390.133C458.829 373.981 445.683 360.853 429.547 360.853C413.412 360.853 400.266 373.998 400.266 390.133V427.142H389.073V390.133C389.073 367.816 407.23 349.66 429.547 349.66C451.865 349.66 470.021 367.816 470.021 390.133V427.142Z" fill="#FAB61D"/>
<path d="M482.811 409.597H376.25C373.858 409.597 371.919 411.536 371.919 413.928V483.173C371.919 485.565 373.858 487.504 376.25 487.504H482.811C485.202 487.504 487.142 485.565 487.142 483.173V413.928C487.142 411.536 485.202 409.597 482.811 409.597Z" fill="#FAB61D"/>
<path d="M487.142 484.906V459.548C465.469 477.297 434.235 483.971 416.537 486.417C417.03 487.063 417.811 487.504 418.711 487.504H484.475C485.953 487.504 487.159 486.349 487.159 484.906H487.142Z" fill="#FAB61D"/>
<path d="M439.059 436.806C439.059 431.541 434.796 427.278 429.53 427.278C424.265 427.278 420.002 431.541 420.002 436.806C420.002 439.948 421.531 442.717 423.858 444.449L420.834 465.985H438.226L435.203 444.449C437.547 442.717 439.059 439.948 439.059 436.806Z" fill="#58595A"/>
<path d="M375.554 423.27V453.841C376.352 440.865 382.5 412.604 420.919 412.604H386.033C380.275 412.604 375.554 417.393 375.554 423.27Z" fill="#FFDC54"/>
<path d="M178.891 401.088V401.139H6.05773V48.4441H0.962402V406.235H183.987V401.088H178.891Z" fill="#E41B21"/>
<path d="M759.351 514.203V514.254H932.184V161.559H937.28V519.35H754.256V514.203H759.351Z" fill="#5EC4E1"/>
<path d="M263.983 401.037H180.42V406.336H263.983V401.037Z" fill="#E41B21"/>
<path d="M755.275 514.152H556.557V519.452H755.275V514.152Z" fill="#5EC4E1"/>
<path d="M424.503 588C334.536 588 261.351 514.815 261.351 424.849C261.351 334.884 334.536 261.698 424.503 261.698C514.47 261.698 587.655 334.884 587.655 424.849C587.655 514.815 514.47 588 424.503 588ZM424.503 266.794C337.356 266.794 266.446 337.703 266.446 424.849C266.446 511.995 337.356 582.905 424.503 582.905C511.65 582.905 582.56 511.995 582.56 424.849C582.56 337.703 511.65 266.794 424.503 266.794Z" fill="white"/>
</svg>
