<svg width="388" height="197" viewBox="0 0 388 197" fill="none" xmlns="http://www.w3.org/2000/svg">
<path d="M359.441 92.3434C359.662 90.577 359.781 88.7937 359.781 86.9764C359.781 62.6379 340.062 42.9192 315.724 42.9192C307.69 42.9192 300.166 45.0762 293.678 48.8467C285.185 27.2088 264.125 11.872 239.48 11.872C222.564 11.872 207.329 19.0903 196.697 30.6226C186.863 12.3985 167.602 0 145.421 0C116.853 0 93.1256 20.5679 88.1662 47.7088C83.8181 46.384 79.1984 45.6537 74.4258 45.6537C48.6944 45.6537 27.7865 66.3405 27.4129 91.9867C11.0229 101.821 0 119.773 0 140.171C0 171.065 25.2728 196.321 56.1505 196.321H330.092C360.987 196.321 386.243 171.048 386.243 140.171C386.243 120.011 375.475 102.262 359.424 92.3434H359.441Z" fill="#6BB42D"/>
<path opacity="0.2" d="M360.618 92.802C360.839 91.0356 360.958 89.2523 360.958 87.435C360.958 72.0642 353.077 58.5447 341.137 50.664C316.917 93.6342 280.74 129.08 237.413 152.332C202.901 171.252 165.008 183.99 126.861 196.797H331.269C362.164 196.797 387.42 171.524 387.42 140.647C387.42 120.486 376.651 102.738 360.601 92.819L360.618 92.802Z" fill="#147704"/>
</svg>
