<svg width="320" height="164" viewBox="0 0 320 164" fill="none" xmlns="http://www.w3.org/2000/svg">
<path d="M297.703 76.4971C297.873 75.0364 297.975 73.5588 297.975 72.0472C297.975 51.8869 281.636 35.548 261.475 35.548C254.817 35.548 248.584 37.3314 243.217 40.4565C236.185 22.5381 218.742 9.83387 198.327 9.83387C184.315 9.83387 171.696 15.8123 162.898 25.3575C154.762 10.2585 138.797 0 120.437 0C96.7773 0 77.1263 17.0352 73.016 39.5054C69.4153 38.4014 65.5938 37.8069 61.6365 37.8069C40.321 37.8069 23.0139 54.9271 22.7082 76.1744C9.13761 84.3269 0 99.1881 0 116.087C0 141.666 20.9248 162.607 46.5203 162.607H273.415C298.994 162.607 319.936 141.683 319.936 116.087C319.936 99.3919 311.019 84.6835 297.72 76.4801L297.703 76.4971Z" fill="#EBA60A"/>
<path opacity="0.2" d="M297.491 76.2401C297.676 74.7629 297.775 73.2714 297.775 71.7516C297.775 58.897 291.185 47.5906 281.199 41C260.944 76.9361 230.689 106.58 194.455 126.025C165.592 141.848 133.902 152.501 102 163.211H272.947C298.784 163.211 319.905 142.076 319.905 116.253C319.905 99.3926 310.9 84.5494 297.477 76.2543L297.491 76.2401Z" fill="#147704"/>
</svg>
