<svg width="173" height="142" viewBox="0 0 173 142" fill="none" xmlns="http://www.w3.org/2000/svg">
<path d="M12.0054 99.7529C11.9069 100.539 11.8577 101.335 11.8577 102.151C11.8577 113.028 20.6919 121.843 31.5942 121.843C35.189 121.843 38.567 120.88 41.4723 119.199C45.2739 128.868 54.7088 135.717 65.7491 135.717C73.3226 135.717 80.1477 132.485 84.9144 127.336C89.3167 135.482 97.944 141.024 107.871 141.024C120.665 141.024 131.291 131.826 133.507 119.71C135.457 120.3 137.525 120.624 139.663 120.624C151.185 120.624 160.551 111.387 160.719 99.92C168.056 95.5276 173 87.5093 173 78.3904C173 64.5843 161.684 53.2938 147.847 53.2938L25.1532 53.2938C11.316 53.2938 -3.51317e-06 64.5843 -3.51317e-06 78.3904C-3.51317e-06 87.3913 4.81595 95.331 12.0153 99.7627L12.0054 99.7529Z" fill="#01122C"/>
<path d="M160.995 41.2708C161.093 40.4847 161.142 39.6887 161.142 38.8731C161.142 27.9953 152.308 19.1811 141.406 19.1811C137.811 19.1811 134.433 20.1441 131.528 21.8244C127.726 12.1552 118.291 5.30624 107.251 5.30624C99.6774 5.30624 92.8523 8.53911 88.0856 13.6881C83.6833 5.54207 75.056 0 65.1286 0C52.3353 0 41.7087 9.19749 39.4928 21.3134C37.5428 20.7238 35.4746 20.3995 33.3374 20.3995C21.8146 20.3995 12.4486 29.6363 12.2812 41.1037C4.94401 45.4961 0 53.5144 0 62.6333C0 76.4394 11.316 87.7299 25.1533 87.7299H147.847C161.684 87.7299 173 76.4394 173 62.6333C173 53.6323 168.184 45.6926 160.985 41.2609L160.995 41.2708Z" fill="#01122C"/>
</svg>
