<svg width="525" height="532" viewBox="0 0 525 532" fill="none" xmlns="http://www.w3.org/2000/svg">
<g clip-path="url(#clip0_47_3080)">
<path d="M525 262.843C525 407.981 407.489 525.685 262.474 525.685C117.459 525.685 0 407.981 0 262.843C0 117.705 117.511 0 262.526 0C407.541 0 525.052 117.653 525.052 262.843H525Z" fill="#274168"/>
<path d="M81.7873 329.925C87.9911 285.152 198.833 226.299 274.52 234.788C350.207 243.277 420.931 293.123 439.025 329.925C457.12 366.727 430.547 499.339 430.547 499.339H111.462C111.462 499.339 71.034 407.463 81.839 329.925H81.7873Z" fill="#161616"/>
<path d="M144.808 233.08C144.808 233.08 135.761 216.672 156.699 191.154C177.637 165.635 278.346 143.016 330.406 181.526C382.467 220.036 388.981 220.916 385.879 233.08C382.725 245.244 304.402 297.678 298.715 320.608C293.028 343.538 266.455 382.618 264.697 382.618C262.939 382.618 241.019 337.275 223.493 313.517C205.967 289.707 144.86 233.08 144.86 233.08H144.808Z" fill="black"/>
<path d="M182.755 171.898C181.772 186.288 182.496 205.388 188.907 226.455C195.731 248.764 205.864 263.153 208.346 266.569C215.997 277.077 223.907 288.05 238.951 294.883C251.979 300.783 263.767 300.628 268.368 300.525C268.368 300.525 285.894 300.111 300.783 291.932C345.037 267.553 347.932 169.103 347.932 169.103L182.703 171.95L182.755 171.898Z" fill="#FFB18F"/>
<path opacity="0.1" d="M339.505 227.542C326.012 225.575 310.968 223.401 294.631 221.123C272.194 217.966 268.264 217.655 261.647 217.189C245.776 215.999 231.972 215.688 215.894 220.709C201.883 225.109 196.61 230.647 191.44 227.645C184.719 223.711 183.789 208.649 187.666 201.247C201.056 175.677 278.087 187.893 329.786 208.545C335.214 210.719 339.609 212.686 342.555 214.032" fill="black"/>
<path d="M135.192 232.511C136.95 231.113 139.638 229.508 142.947 229.405C150.96 229.146 156.389 237.997 162.954 245.917C177.378 263.308 183.065 258.753 198.678 276.197C209.586 288.361 207.002 290.794 217.548 304.51C237.09 329.977 247.947 324.231 259.062 341.83L267.024 415.538C267.024 415.538 244.948 355.495 212.12 313.568C185.96 280.131 135.14 232.562 135.14 232.562L135.192 232.511Z" fill="#8E8B8B"/>
<path d="M393.22 237.894C390.997 231.631 387.947 226.299 383.604 225.678C377.4 224.798 372.644 234.115 361.27 246.641C352.43 256.321 351.809 254.561 336.145 269.054C324.151 280.131 316.241 288.775 303.161 303.268C282.43 326.198 272.038 337.637 270.022 342.037C255.598 373.922 267.024 415.486 267.024 415.486C267.024 415.486 271.159 400.993 279.38 381.324C283.877 370.557 295.561 344.677 316.344 315.691C341.832 280.079 370.369 254.871 393.22 237.946V237.894Z" fill="#8E8B8B"/>
<path d="M102.622 296.228C83.2865 296.073 68.449 348.662 57.5406 387.38C43.582 436.863 36.6543 461.605 46.9424 481.74C66.3294 519.681 129.298 538.16 156.285 517.817C197.385 486.813 147.289 371.748 129.557 331.064C119.993 309.117 112.186 296.28 102.622 296.228Z" fill="#1E1E1E"/>
<path d="M405.99 296.021C425.428 292.76 452.208 350.319 463.685 395.092C474.646 437.95 485.502 480.291 460.17 507.724C435.458 534.433 383.397 539.298 360.34 517.869C340.436 499.339 355.997 443.282 387.068 331.115C392.238 312.43 396.736 297.626 405.99 296.073V296.021Z" fill="#1E1E1E"/>
<path d="M433.545 307.305H73.4121V516.368H433.545V307.305Z" fill="#AAAAAA"/>
<path d="M434.062 515.281H73.9291V532H434.062V515.281Z" fill="#8C8C8C"/>
<path d="M260.406 233.391C261.078 231.786 264.49 231.734 266.713 233.649C266.817 233.753 268.885 235.565 268.471 236.859C268.006 238.567 263.301 239.343 261.233 236.6C260.665 235.875 259.993 234.426 260.406 233.391Z" fill="#DB826A"/>
<path opacity="0.5" d="M260.613 234.736C263.56 225.212 263.767 222.883 263.353 222.676C262.939 222.521 261.75 224.281 261.13 225.73C260.148 228.007 260.303 230.13 260.406 232.355C260.458 233.339 260.561 234.167 260.665 234.685L260.613 234.736Z" fill="#DB826A"/>
<path opacity="0.5" d="M265.369 294.676C266.714 285.152 266.817 282.822 266.558 282.667C266.352 282.512 265.783 284.272 265.473 285.721C265.007 287.947 265.111 290.121 265.163 292.346C265.163 293.33 265.266 294.158 265.318 294.727L265.369 294.676Z" fill="#DB826A"/>
<path d="M263.456 263.774C274.365 264.344 280.569 264.447 286.411 267.605C287.755 268.329 289.202 269.106 288.944 269.623C287.755 272.056 247.378 264.188 247.74 262.946C247.843 262.636 249.911 263.101 263.456 263.826V263.774Z" fill="#F96E6E"/>
<path d="M201.832 230.544C208.863 228.266 216.617 226.144 224.993 224.436C245.052 220.347 263.043 219.674 277.829 220.295" fill="#FFB18F"/>
<path d="M254.409 399.336C254.409 399.336 254.151 399.336 254.047 399.336C253.479 399.336 252.962 398.871 252.806 398.301C252.134 395.713 252.703 392.815 254.306 390.744C256.012 388.467 258.855 387.173 261.75 387.276C262.371 387.276 262.836 387.69 262.991 388.311C263.715 391.106 262.991 394.16 261.13 396.283C259.476 398.198 256.942 399.336 254.409 399.336ZM261.337 388.415C258.959 388.415 256.632 389.554 255.185 391.417C253.789 393.229 253.323 395.765 253.892 397.991C253.892 398.094 253.996 398.146 254.099 398.146C256.425 398.249 258.804 397.214 260.251 395.506C261.854 393.643 262.474 390.951 261.854 388.57C261.854 388.467 261.75 388.415 261.647 388.415C261.544 388.415 261.44 388.415 261.285 388.415H261.337Z" fill="white"/>
<path d="M259.837 436.346C257.873 436.346 256.529 435.673 255.598 435.207C255.288 435.052 255.03 434.948 254.874 434.845C253.944 434.534 252.962 434.534 252.031 434.845C251.824 434.896 251.566 435.052 251.307 435.207C250.428 435.673 249.032 436.346 247.12 436.346C244.276 436.346 240.812 434.12 238.021 430.548C236.47 428.53 235.229 426.2 234.298 423.612C233.264 420.714 232.644 417.505 232.541 414.192C232.334 408.86 233.368 404.823 235.694 402.183C237.504 400.113 240.45 398.922 243.863 398.922C246.241 398.922 248.515 399.544 250.739 400.682C252.496 401.614 254.616 401.614 256.374 400.682C258.597 399.544 260.871 398.974 263.25 398.922C263.25 398.922 263.301 398.922 263.353 398.922C266.713 398.922 269.609 400.113 271.418 402.183C273.744 404.875 274.778 408.912 274.572 414.192C274.417 417.556 273.848 420.714 272.814 423.612C271.883 426.2 270.643 428.53 269.092 430.548C266.352 434.12 262.836 436.346 259.993 436.346H259.837ZM255.236 433.758C255.495 433.861 255.805 434.016 256.115 434.172C256.942 434.586 258.131 435.207 259.837 435.207C262.319 435.207 265.524 433.136 268.006 429.875C269.505 427.96 270.694 425.735 271.573 423.25C272.555 420.455 273.176 417.401 273.279 414.14C273.486 409.119 272.504 405.341 270.384 402.908C268.833 401.096 266.196 400.061 263.198 400.061C263.198 400.061 263.198 400.061 263.146 400.061C260.975 400.061 258.804 400.63 256.787 401.666C254.668 402.753 252.186 402.753 250.118 401.666C248.102 400.63 245.931 400.061 243.759 400.061C240.709 400.061 238.072 401.096 236.47 402.908C234.35 405.341 233.368 409.119 233.575 414.14C233.678 417.349 234.298 420.455 235.281 423.25C236.159 425.735 237.349 427.96 238.848 429.875C241.381 433.136 244.586 435.207 247.016 435.207C248.722 435.207 249.86 434.637 250.687 434.172C250.997 434.016 251.307 433.861 251.566 433.758C252.703 433.343 253.996 433.343 255.133 433.758H255.236Z" fill="white"/>
<path d="M241.226 403.684C239.675 404.668 238.951 406.428 238.486 408.136C238.227 409.119 238.124 410.103 238.021 411.086C237.866 412.846 237.762 414.606 237.555 416.418C237.504 416.935 236.728 416.987 236.625 416.418C236.211 413.726 236.108 409.792 237.09 407.204C237.71 405.392 239.003 403.529 240.916 403.011C241.278 402.908 241.484 403.426 241.174 403.633L241.226 403.684Z" fill="white"/>
<path d="M135.192 235.099C122.578 224.074 238.693 39.5454 296.854 57.8171C307.142 61.078 316.758 71.0162 324.771 79.2979C342.762 97.9319 349.276 116.514 357.341 137.633C385.155 210.46 400.354 232.562 393.22 237.946C388.205 241.724 379.572 230.699 357.651 221.796C336.145 213.048 304.66 203.887 165.798 219.829C141.965 222.572 137.88 237.48 135.192 235.15V235.099Z" fill="#161616"/>
</g>
<defs>
<clipPath id="clip0_47_3080">
<rect width="525" height="532" fill="white"/>
</clipPath>
</defs>
</svg>
