<svg width="237" height="112" viewBox="0 0 237 112" fill="none" xmlns="http://www.w3.org/2000/svg">
<g clip-path="url(#clip0_43_114)">
<path d="M0 102.85V72.37H10.86C18.71 72.37 25.11 79.19 25.11 87.61C25.11 96.03 18.71 102.85 10.86 102.85H0ZM4.68 77.4V97.83H10.86C16.14 97.83 20.43 93.24 20.43 87.61C20.43 81.98 16.14 77.39 10.86 77.39H4.68V77.4Z" fill="white"/>
<path d="M27.9399 91.69C27.9399 85.77 32.9999 80.96 39.1899 80.96C41.6799 80.96 43.9499 81.69 45.7999 82.98V80.96H50.4799V102.42H45.7999V100.4C43.9499 101.69 41.6799 102.42 39.1899 102.42C33.0099 102.42 27.9399 97.61 27.9399 91.69ZM32.6199 91.69C32.6199 95.17 35.5799 97.96 39.1899 97.96C42.7999 97.96 45.7999 95.17 45.7999 91.69C45.7999 88.21 42.8399 85.42 39.1899 85.42C35.5399 85.42 32.6199 88.21 32.6199 91.69Z" fill="white"/>
<path d="M53.77 85.63V80.95H58.58V74.68H63.26V80.95H68.07V85.63H63.26V102.41H58.58V85.63H53.77Z" fill="white"/>
<path d="M69.95 91.69C69.95 85.77 75.01 80.96 81.2 80.96C83.69 80.96 85.96 81.69 87.81 82.98V80.96H92.49V102.42H87.81V100.4C85.96 101.69 83.69 102.42 81.2 102.42C75.02 102.42 69.95 97.61 69.95 91.69ZM74.63 91.69C74.63 95.17 77.59 97.96 81.2 97.96C84.81 97.96 87.81 95.17 87.81 91.69C87.81 88.21 84.85 85.42 81.2 85.42C77.55 85.42 74.63 88.21 74.63 91.69Z" fill="white"/>
<path d="M95.49 80.96H100.6L106.87 94.65L113.14 80.96H118.25L108.42 102.42H105.33L95.5 80.96H95.49Z" fill="white"/>
<path d="M119.09 91.69C119.09 85.77 124.15 80.96 130.34 80.96C132.83 80.96 135.1 81.69 136.95 82.98V80.96H141.63V102.42H136.95V100.4C135.1 101.69 132.83 102.42 130.34 102.42C124.16 102.42 119.09 97.61 119.09 91.69ZM123.77 91.69C123.77 95.17 126.73 97.96 130.34 97.96C133.95 97.96 136.95 95.17 136.95 91.69C136.95 88.21 133.99 85.42 130.34 85.42C126.69 85.42 123.77 88.21 123.77 91.69Z" fill="white"/>
<path d="M145.57 91.69C145.57 85.77 150.63 80.96 156.82 80.96C159.31 80.96 161.58 81.69 163.43 82.98V80.96H168.11V102.51C168.11 108.69 162.83 113.71 156.35 113.71H154.33V109.25H156.35C160.26 109.25 163.43 106.2 163.43 102.51V100.41C161.58 101.7 159.31 102.43 156.82 102.43C150.64 102.43 145.57 97.62 145.57 91.7V91.69ZM150.25 91.69C150.25 95.17 153.21 97.96 156.82 97.96C160.43 97.96 163.43 95.17 163.43 91.69C163.43 88.21 160.47 85.42 156.82 85.42C153.17 85.42 150.25 88.21 150.25 91.69Z" fill="white"/>
<path d="M171.41 85.63V80.95H176.22V74.68H180.9V80.95H185.71V85.63H180.9V102.41H176.22V85.63H171.41Z" fill="white"/>
<path d="M198.83 80.96C204.75 80.96 209.69 85.34 210.08 91L210.25 93.36H192.52C193.29 96.02 195.83 97.95 198.83 97.95C200.93 97.95 202.82 97.05 204.07 95.5L207.8 98.2C205.65 100.86 202.39 102.41 198.83 102.41C192.65 102.41 187.58 97.6 187.58 91.68C187.58 85.76 192.64 80.95 198.83 80.95V80.96ZM192.95 88.9H204.75C203.68 86.84 201.4 85.42 198.83 85.42C196.26 85.42 194.02 86.84 192.95 88.9Z" fill="white"/>
<path d="M213.94 102.42V80.96H218.62V82.98C220.47 81.69 222.7 80.96 225.14 80.96C231.32 80.96 236.34 85.77 236.34 91.65V102.38H231.66V91.65C231.66 88.22 228.74 85.43 225.14 85.43C221.54 85.43 218.62 88.22 218.62 91.65V102.42H213.94Z" fill="white"/>
<path d="M148.11 26.8L136.57 6.6C134.29 2.6 130.04 0.13 125.44 0.11L102.18 -5.65487e-08C97.58 -0.0200001 93.31 2.42 90.99 6.39L79.27 26.48C76.95 30.46 76.93 35.37 79.21 39.37L90.75 59.57C93.03 63.57 97.28 66.04 101.88 66.06L125.14 66.17C129.74 66.19 134.01 63.75 136.33 59.78L148.05 39.69C150.37 35.71 150.39 30.8 148.11 26.8ZM127.14 43.81L126.07 42.49C125.95 42.34 125.97 42.12 126.12 42C126.27 41.88 126.49 41.9 126.61 42.05L127.48 43.13C127.37 43.36 127.26 43.59 127.14 43.81ZM128.39 41.11C128.29 41.35 128.19 41.6 128.09 41.83L127.28 40.83L126.42 39.76C126.01 40.6 125.5 41.39 124.88 42.1C124.79 42.21 124.65 42.24 124.52 42.21C124.47 42.2 124.43 42.17 124.39 42.14C124.25 42.02 124.23 41.8 124.35 41.65C125.56 40.25 126.36 38.55 126.67 36.74C126.7 36.55 126.88 36.42 127.07 36.46C127.25 36.49 127.39 36.67 127.35 36.86C127.22 37.61 127.01 38.35 126.73 39.06L127.46 39.97C128.42 37.86 128.75 35.55 128.39 33.24L127.68 28.71C127.65 28.52 127.78 28.34 127.97 28.31C128.16 28.28 128.34 28.41 128.37 28.6L129.08 33.13C129.48 35.69 129.08 38.25 127.95 40.56L128.39 41.11ZM104.84 28.1C104.81 27.94 104.81 27.77 104.79 27.61L101.62 31.03C101.53 31.13 101.39 31.16 101.27 31.13C101.22 31.12 101.17 31.09 101.13 31.05C100.99 30.92 100.98 30.7 101.11 30.56L104.71 26.67C104.65 23.79 105.75 20.95 107.8 18.87C107.93 18.73 108.15 18.73 108.29 18.87C108.43 19 108.43 19.22 108.29 19.36C106.06 21.63 105.02 24.86 105.51 28L105.93 30.67C105.96 30.86 105.83 31.04 105.64 31.07C105.59 31.07 105.54 31.07 105.49 31.06C105.37 31.02 105.27 30.92 105.25 30.78L104.83 28.11L104.84 28.1ZM104.34 31.01L103.43 31.99C103.34 32.09 103.2 32.12 103.08 32.09C103.03 32.08 102.98 32.05 102.94 32.01C102.8 31.88 102.79 31.66 102.92 31.52L103.83 30.54C103.96 30.4 104.18 30.39 104.32 30.52C104.46 30.65 104.47 30.87 104.34 31.01ZM104.04 23.49C103.99 23.68 103.8 23.79 103.62 23.74C103.62 23.74 103.62 23.74 103.61 23.74C103.43 23.69 103.33 23.5 103.37 23.32C104.62 18.49 108.59 14.87 113.5 14.1C115.56 13.78 117.68 13.98 119.62 14.69C119.8 14.75 119.89 14.95 119.83 15.13C119.76 15.31 119.55 15.4 119.39 15.34C117.55 14.67 115.55 14.48 113.61 14.79C108.98 15.51 105.22 18.93 104.05 23.5L104.04 23.49ZM123.26 34.04L122.61 29.87C122.58 29.68 122.71 29.5 122.9 29.47C123.09 29.44 123.27 29.57 123.3 29.76L123.95 33.93C124.33 36.37 123.47 38.82 121.64 40.48C121.55 40.56 121.42 40.59 121.31 40.56C121.25 40.54 121.2 40.51 121.15 40.46C121.02 40.32 121.03 40.1 121.17 39.97C122.82 38.47 123.6 36.25 123.26 34.04ZM122.23 34.2C122.52 36.08 121.86 37.95 120.45 39.22C120.36 39.3 120.23 39.33 120.12 39.29C120.06 39.27 120.01 39.24 119.96 39.19C119.83 39.05 119.84 38.83 119.99 38.7C121.22 37.59 121.81 35.95 121.55 34.3L120.21 25.69C120.13 25.19 119.98 24.71 119.75 24.26C119.66 24.09 119.73 23.88 119.9 23.8C120.07 23.71 120.28 23.78 120.36 23.95C120.62 24.46 120.79 25.01 120.88 25.59L122.22 34.2H122.23ZM110.96 23.16C111.83 21.96 113.11 21.17 114.57 20.94C116.07 20.71 117.57 21.09 118.78 22.02C118.93 22.14 118.96 22.35 118.84 22.51C118.72 22.66 118.51 22.69 118.35 22.57C117.29 21.75 115.98 21.42 114.67 21.62C113.4 21.82 112.28 22.51 111.52 23.56C110.76 24.61 110.45 25.9 110.65 27.19L111.07 29.86C111.1 30.05 110.97 30.23 110.78 30.26C110.73 30.26 110.68 30.26 110.63 30.25C110.51 30.21 110.41 30.11 110.39 29.97L109.97 27.3C109.74 25.83 110.09 24.36 110.96 23.16ZM108.57 27.33C108.57 27.33 108.48 27.33 108.44 27.32C108.31 27.28 108.2 27.16 108.19 27.02C107.9 23.44 110.31 20.14 113.79 19.34C113.98 19.3 114.16 19.41 114.21 19.6C114.25 19.79 114.14 19.97 113.95 20.02C110.81 20.74 108.63 23.73 108.89 26.97C108.91 27.16 108.76 27.33 108.57 27.34V27.33ZM119.84 34.57L119.58 32.93C119.55 32.74 119.68 32.56 119.87 32.53C120.06 32.5 120.24 32.63 120.27 32.82L120.53 34.46C120.69 35.47 120.45 36.49 119.85 37.31C119.25 38.14 118.37 38.68 117.37 38.84C116.81 38.93 116.26 38.89 115.73 38.73C115.31 38.61 114.91 38.41 114.54 38.14C113.72 37.53 113.18 36.64 113.02 35.63L112.01 29.17C111.98 28.98 112.11 28.8 112.3 28.77C112.49 28.74 112.67 28.87 112.7 29.06L113.71 35.52C113.84 36.35 114.28 37.08 114.96 37.58C115.63 38.08 116.45 38.28 117.27 38.15C118.09 38.02 118.81 37.58 119.29 36.9C119.78 36.22 119.98 35.39 119.85 34.56L119.84 34.57ZM118.81 34.73C118.99 35.88 118.22 36.96 117.09 37.14C116.79 37.19 116.49 37.16 116.21 37.08C115.46 36.86 114.86 36.21 114.73 35.37L113.39 26.76C113.21 25.61 113.98 24.53 115.1 24.35C115.56 24.28 116.02 24.36 116.43 24.6C116.6 24.7 116.65 24.91 116.56 25.07C116.46 25.23 116.25 25.29 116.09 25.2C115.82 25.04 115.52 24.99 115.21 25.03C114.46 25.15 113.95 25.87 114.07 26.65L115.41 35.26C115.53 36.03 116.24 36.57 116.99 36.45C117.74 36.33 118.25 35.61 118.13 34.83L116.93 27.13C116.9 26.94 117.03 26.76 117.22 26.73C117.41 26.7 117.59 26.83 117.62 27.02L118.82 34.72L118.81 34.73ZM117.11 35C117.14 35.19 117.01 35.37 116.82 35.4C116.77 35.4 116.72 35.4 116.67 35.39C116.55 35.35 116.45 35.25 116.43 35.11L115.09 26.5C115.06 26.31 115.19 26.13 115.38 26.1C115.57 26.07 115.75 26.2 115.78 26.39L117.12 35H117.11ZM119.69 31.39C119.64 31.39 119.59 31.39 119.54 31.38C119.42 31.34 119.32 31.24 119.3 31.1L118.5 25.97C118.23 24.25 116.64 23.07 114.95 23.34C114.13 23.47 113.41 23.91 112.93 24.59C112.44 25.27 112.24 26.1 112.37 26.93L112.43 27.32C112.46 27.51 112.33 27.69 112.14 27.72C112.09 27.72 112.04 27.72 111.99 27.71C111.87 27.67 111.77 27.57 111.75 27.43L111.69 27.04C111.53 26.03 111.77 25.01 112.37 24.19C112.97 23.36 113.85 22.82 114.85 22.66C116.92 22.34 118.87 23.78 119.19 25.87L119.99 31C120.02 31.19 119.89 31.37 119.7 31.4L119.69 31.39ZM108.77 28.63C108.96 28.6 109.14 28.73 109.17 28.92L110.29 36.07C110.42 36.88 110.68 37.64 111.09 38.34C111.18 38.51 111.13 38.72 110.96 38.81C110.87 38.86 110.78 38.87 110.69 38.84C110.61 38.82 110.53 38.76 110.49 38.68C110.05 37.9 109.75 37.06 109.61 36.17L108.49 29.02C108.46 28.83 108.59 28.65 108.78 28.62L108.77 28.63ZM111.31 35.91L110.7 32.01C110.67 31.82 110.8 31.64 110.99 31.61C111.18 31.58 111.36 31.71 111.39 31.9L112 35.8C112.2 37.09 112.89 38.22 113.93 38.99C114.98 39.76 116.25 40.08 117.53 39.88C117.85 39.83 118.16 39.75 118.46 39.64C118.64 39.57 118.84 39.66 118.91 39.84C118.98 40.02 118.89 40.22 118.71 40.29C118.37 40.42 118.01 40.51 117.65 40.57C116.84 40.7 116.02 40.64 115.25 40.41C114.64 40.23 114.06 39.94 113.53 39.55C112.34 38.67 111.55 37.38 111.32 35.91H111.31ZM122.67 28.05C122.62 28.05 122.57 28.05 122.52 28.04C122.4 28 122.3 27.9 122.28 27.76L121.92 25.44C121.45 22.45 119.04 20.17 116.05 19.87C115.86 19.85 115.72 19.68 115.74 19.49C115.76 19.3 115.93 19.16 116.12 19.18C119.43 19.5 122.09 22.03 122.6 25.33L122.96 27.65C122.99 27.84 122.86 28.02 122.67 28.05ZM122.03 20.85C121.94 20.93 121.81 20.96 121.7 20.93C121.64 20.91 121.59 20.88 121.54 20.83C119.65 18.76 116.88 17.78 114.14 18.21C113.41 18.32 112.7 18.53 112.03 18.84C111.95 18.88 111.87 18.88 111.79 18.86C111.7 18.83 111.62 18.77 111.57 18.67C111.49 18.5 111.57 18.29 111.74 18.21C112.46 17.88 113.23 17.66 114.03 17.53C117 17.06 120 18.13 122.05 20.36C122.18 20.5 122.17 20.72 122.03 20.85ZM107.17 25.59C107.15 25.78 106.98 25.92 106.79 25.9C106.77 25.9 106.75 25.9 106.73 25.89C106.57 25.84 106.47 25.69 106.48 25.52C106.75 22.9 108.14 20.54 110.3 19.03C110.46 18.92 110.67 18.96 110.78 19.12C110.89 19.28 110.85 19.49 110.69 19.6C108.7 20.99 107.41 23.18 107.17 25.59ZM109.56 18.28C109.47 18.35 109.36 18.36 109.26 18.33C109.19 18.31 109.12 18.27 109.08 18.2C108.97 18.04 109 17.83 109.16 17.72C110.53 16.72 112.08 16.09 113.77 15.82C114.57 15.69 115.38 15.66 116.18 15.72C116.37 15.73 116.51 15.9 116.5 16.09C116.49 16.28 116.32 16.42 116.13 16.41C115.38 16.36 114.62 16.39 113.87 16.51C112.3 16.76 110.85 17.35 109.56 18.28ZM118.29 16.81C118.11 16.75 118 16.56 118.06 16.38C118.12 16.2 118.31 16.09 118.49 16.15C121.02 16.92 123.18 18.59 124.56 20.85C124.66 21.01 124.61 21.23 124.44 21.33C124.35 21.38 124.25 21.39 124.16 21.37C124.08 21.35 124.01 21.29 123.96 21.22C122.67 19.1 120.65 17.54 118.28 16.82L118.29 16.81ZM121.05 16.11C120.88 16.02 120.82 15.81 120.91 15.64C121 15.47 121.22 15.41 121.38 15.5C124.8 17.39 127.11 20.68 127.71 24.53L128.08 26.89C128.11 27.08 127.98 27.26 127.79 27.29C127.74 27.29 127.69 27.29 127.64 27.28C127.52 27.24 127.42 27.14 127.4 27L127.03 24.64C126.46 21 124.28 17.89 121.05 16.11ZM126.78 18.55C126.69 18.62 126.58 18.63 126.48 18.6C126.41 18.58 126.35 18.54 126.3 18.47C123.62 14.81 119.35 12.74 114.86 12.93C114.67 12.93 114.51 12.79 114.5 12.6C114.5 12.41 114.64 12.25 114.83 12.24C119.55 12.05 124.05 14.22 126.86 18.06C126.97 18.21 126.94 18.43 126.79 18.54L126.78 18.55ZM106.57 28.11C106.54 27.92 106.67 27.74 106.86 27.71C107.05 27.68 107.23 27.81 107.26 28L108.56 36.34C109.22 40.55 113.05 43.65 117.28 43.39C117.47 43.38 117.64 43.52 117.65 43.71C117.66 43.9 117.52 44.07 117.33 44.08C116.28 44.14 115.26 44.02 114.29 43.73C111.03 42.77 108.43 39.97 107.88 36.44L106.58 28.1L106.57 28.11ZM117.88 42.28C116.81 42.45 115.73 42.37 114.72 42.07C113.68 41.76 112.71 41.22 111.88 40.46C111.74 40.33 111.73 40.11 111.86 39.97C111.99 39.83 112.21 39.82 112.35 39.95C113.83 41.3 115.81 41.9 117.77 41.59C118.53 41.47 119.25 41.22 119.92 40.86C120.09 40.77 120.3 40.83 120.39 41C120.48 41.17 120.42 41.38 120.25 41.47C119.51 41.88 118.71 42.15 117.88 42.28ZM118.87 43.13C123 42.05 125.62 38.03 124.95 33.78L123.61 25.17C123.48 24.34 123.23 23.54 122.86 22.79C122.78 22.62 122.85 22.41 123.02 22.33C123.19 22.25 123.4 22.32 123.48 22.49C123.88 23.3 124.15 24.17 124.29 25.07L125.63 33.68C126.35 38.28 123.52 42.63 119.04 43.81C118.98 43.83 118.91 43.82 118.85 43.81C118.74 43.78 118.64 43.69 118.61 43.57C118.56 43.38 118.67 43.2 118.86 43.15L118.87 43.13ZM127.14 34.93C127.14 34.93 127.06 34.93 127.02 34.92C126.88 34.88 126.78 34.76 126.77 34.6C126.75 34.23 126.71 33.87 126.66 33.51L125.32 24.9C125.22 24.29 125.07 23.68 124.87 23.1C124.81 22.92 124.9 22.72 125.08 22.66C125.26 22.6 125.46 22.69 125.52 22.87C125.74 23.49 125.9 24.13 126 24.79L127.34 33.4C127.4 33.78 127.44 34.17 127.46 34.57C127.46 34.76 127.32 34.92 127.13 34.93H127.14ZM130.24 35.21C130.24 34.46 130.2 33.71 130.08 32.97L128.74 24.36C128.52 22.98 128.1 21.65 127.49 20.41C127.41 20.24 127.47 20.03 127.65 19.95C127.82 19.87 128.03 19.93 128.11 20.11C128.76 21.41 129.2 22.81 129.43 24.26L130.75 32.7C130.62 33.52 130.45 34.36 130.25 35.21H130.24ZM123.31 12.61C125.51 13.87 127.33 15.61 128.68 17.65C130.22 20.56 131.15 24.2 131.12 28.35L130.45 24.09C129.73 19.5 127 15.53 122.97 13.2C122.8 13.1 122.75 12.89 122.84 12.73C122.94 12.56 123.14 12.51 123.31 12.6V12.61ZM112.25 10.81C112.48 10.76 112.72 10.72 112.95 10.68C115.83 10.23 118.77 10.58 121.46 11.7C121.64 11.77 121.72 11.98 121.65 12.15C121.58 12.33 121.37 12.41 121.2 12.34C118.63 11.28 115.82 10.94 113.06 11.37C110.81 11.72 108.75 12.58 106.96 13.8C108.66 12.45 110.46 11.45 112.25 10.81ZM102.08 19.16C100.73 21.62 100.04 24.47 100.23 27.43C100.24 27.62 100.1 27.79 99.91 27.8C99.87 27.8 99.83 27.8 99.79 27.79C99.65 27.75 99.55 27.63 99.54 27.48C99.44 26 99.56 24.54 99.86 23.14C100.52 21.7 101.27 20.37 102.08 19.17V19.16ZM97.08 32C97.13 31.72 97.18 31.43 97.25 31.15L97.34 31.73L98.24 30.76L97.99 29.19C97.96 28.98 97.93 28.77 97.91 28.56C97.96 28.41 98 28.25 98.05 28.1C98.1 27.94 98.14 27.77 98.19 27.61C98.28 27.3 98.38 27 98.48 26.71C98.49 27.49 98.56 28.29 98.68 29.08L98.84 30.11L101.29 27.47C100.78 20.4 105.57 14 112.5 12.54C112.69 12.5 112.87 12.62 112.91 12.81C112.95 13 112.83 13.18 112.64 13.22C106.27 14.56 101.81 20.3 101.96 26.76L103.53 25.07C103.66 24.93 103.88 24.92 104.02 25.05C104.16 25.18 104.17 25.4 104.04 25.54L96.89 33.26C96.95 32.85 97.02 32.44 97.1 32.02L97.08 32ZM96.64 35.39L99.86 31.92C99.99 31.78 100.21 31.77 100.35 31.9C100.49 32.03 100.5 32.25 100.37 32.39L96.59 36.47C96.6 36.11 96.62 35.75 96.65 35.39H96.64ZM96.58 38.37L101.82 32.72C101.95 32.58 102.17 32.57 102.31 32.7C102.45 32.83 102.46 33.05 102.33 33.19L96.64 39.33C96.62 39.01 96.6 38.69 96.59 38.37H96.58ZM99.72 38.91L96.96 41.89C96.91 41.6 96.86 41.32 96.82 41.02L99.21 38.44C99.34 38.3 99.56 38.29 99.7 38.42C99.84 38.55 99.85 38.77 99.72 38.91ZM100.53 37.53C100.39 37.4 100.38 37.18 100.51 37.04L105.5 31.65C105.63 31.51 105.85 31.5 105.99 31.63C106.13 31.76 106.14 31.98 106.01 32.12L101.02 37.51C100.93 37.61 100.79 37.64 100.67 37.61C100.62 37.6 100.57 37.57 100.53 37.53ZM97.29 43.43L102.88 37.4L104.91 35.21C105.04 35.07 105.26 35.06 105.4 35.19C105.54 35.32 105.55 35.54 105.42 35.68L103.39 37.87L97.51 44.21C97.43 43.95 97.36 43.69 97.29 43.43ZM101.36 42.97L98.25 46.32C98.15 46.09 98.06 45.85 97.97 45.6L100.85 42.49C100.98 42.35 101.2 42.34 101.34 42.47C101.48 42.6 101.49 42.82 101.36 42.96V42.97ZM102.07 41.7C101.93 41.57 101.92 41.35 102.05 41.21L106.17 36.76C106.17 36.76 106.17 36.74 106.17 36.73L105.75 34.06C105.72 33.87 105.85 33.69 106.04 33.66C106.23 33.63 106.41 33.76 106.44 33.95L106.86 36.62C107 37.53 107.27 38.41 107.65 39.25C107.73 39.42 107.65 39.63 107.48 39.71C107.4 39.75 107.32 39.75 107.24 39.73C107.15 39.7 107.07 39.64 107.02 39.54C106.74 38.92 106.52 38.27 106.36 37.6L102.58 41.68C102.49 41.78 102.35 41.81 102.23 41.78C102.18 41.77 102.13 41.74 102.09 41.7H102.07ZM98.84 47.59L103.64 42.41L105.85 40.02C105.98 39.88 106.2 39.87 106.34 40C106.48 40.13 106.49 40.35 106.36 40.49L104.15 42.88L99.18 48.24C99.06 48.03 98.95 47.81 98.84 47.59ZM101.61 48.53L100.28 49.97C100.14 49.78 100.01 49.59 99.87 49.39L101.1 48.06C101.23 47.92 101.45 47.91 101.59 48.04C101.73 48.17 101.74 48.39 101.61 48.53ZM102.28 47.52C102.28 47.52 102.18 47.48 102.14 47.44C102 47.31 101.99 47.09 102.12 46.95L107.92 40.69C108.05 40.55 108.27 40.54 108.41 40.67C108.55 40.8 108.56 41.02 108.43 41.16L102.63 47.42C102.54 47.52 102.4 47.55 102.28 47.52ZM101.55 51.51C101.39 51.34 101.24 51.17 101.09 50.99L106.77 44.86L107.94 43.59C108.07 43.45 108.29 43.44 108.43 43.57C108.57 43.7 108.58 43.92 108.45 44.06L107.28 45.33L101.55 51.51ZM104.42 51.33L103 52.86C102.82 52.72 102.65 52.57 102.47 52.41L103.91 50.86C104.04 50.72 104.26 50.71 104.4 50.84C104.54 50.97 104.55 51.19 104.42 51.33ZM105.25 50.15C105.25 50.15 105.15 50.11 105.11 50.07C104.97 49.94 104.96 49.72 105.09 49.58L110.46 43.78C109.94 43.4 109.46 42.98 109.01 42.51C108.88 42.37 108.88 42.15 109.02 42.02C109.16 41.89 109.38 41.89 109.51 42.03C110.37 42.93 111.37 43.65 112.48 44.18C112.65 44.26 112.73 44.47 112.64 44.64C112.57 44.8 112.39 44.87 112.23 44.82C112.21 44.82 112.2 44.81 112.18 44.8C111.78 44.61 111.41 44.39 111.04 44.16L105.59 50.04C105.5 50.14 105.36 50.17 105.24 50.14L105.25 50.15ZM104.05 53.62L111.5 45.58C111.63 45.44 111.85 45.43 111.99 45.56C112.13 45.69 112.14 45.91 112.01 46.05L104.65 53.99C104.45 53.87 104.25 53.75 104.05 53.62ZM110.47 50.62L106.53 54.88C106.3 54.8 106.07 54.71 105.84 54.61L109.96 50.16C110.09 50.02 110.31 50.01 110.45 50.14C110.59 50.27 110.6 50.49 110.47 50.63V50.62ZM107.91 55.28L115.8 46.76C115.93 46.62 116.15 46.61 116.29 46.74C116.43 46.87 116.44 47.09 116.31 47.23L108.71 55.44C108.44 55.4 108.18 55.34 107.91 55.28ZM114.34 52.28L111.68 55.15L111.98 55.52C111.75 55.54 111.51 55.56 111.28 55.57C110.96 55.59 110.64 55.59 110.32 55.59L113.82 51.81C113.95 51.67 114.17 51.66 114.31 51.79C114.45 51.92 114.46 52.14 114.33 52.28H114.34ZM113.45 55.29L113.28 55.08C113.16 54.93 113.18 54.71 113.33 54.59C113.48 54.47 113.7 54.49 113.82 54.64L114.2 55.11C113.95 55.18 113.7 55.23 113.45 55.29ZM115.52 54.7L114.65 53.62C114.53 53.47 114.55 53.25 114.7 53.13C114.85 53.01 115.07 53.03 115.19 53.18L116.2 54.43C115.98 54.52 115.75 54.61 115.52 54.69V54.7ZM117.41 53.88L115.04 50.95C114.92 50.8 114.94 50.58 115.09 50.46C115.24 50.34 115.46 50.36 115.58 50.51L118.04 53.55C117.83 53.67 117.62 53.77 117.42 53.88H117.41ZM119.15 52.88L117.63 51C117.51 50.85 117.53 50.63 117.68 50.51C117.83 50.39 118.05 50.41 118.17 50.56L119.73 52.49C119.54 52.62 119.35 52.75 119.15 52.88ZM122.25 50.41L120.3 48.01C120.18 47.86 120.2 47.64 120.35 47.52C120.5 47.4 120.72 47.42 120.84 47.57L122.74 49.92C122.58 50.09 122.41 50.25 122.24 50.41H122.25ZM123.63 48.96L120.74 45.38L118.49 47.81L121.3 51.28C121.12 51.43 120.94 51.58 120.77 51.72L118.02 48.33L116.38 50.1C116.29 50.2 116.15 50.23 116.03 50.2C115.98 50.19 115.93 50.16 115.89 50.12C115.75 49.99 115.74 49.77 115.87 49.63L119.77 45.42C119.33 45.55 118.88 45.65 118.43 45.72C117.3 45.9 116.16 45.89 115.05 45.71L111.77 49.25C111.68 49.35 111.54 49.38 111.42 49.35C111.37 49.34 111.32 49.31 111.28 49.27C111.14 49.14 111.13 48.92 111.26 48.78L114.27 45.54C114.17 45.52 114.07 45.5 113.97 45.47C113.79 45.42 113.68 45.23 113.73 45.05C113.78 44.87 113.97 44.76 114.16 44.81C115.52 45.18 116.93 45.26 118.33 45.04C120.1 44.76 121.76 44.02 123.14 42.88C123.29 42.76 123.51 42.78 123.63 42.93C123.75 43.08 123.73 43.3 123.58 43.42C122.86 44.01 122.07 44.51 121.23 44.89L124.11 48.45C123.96 48.63 123.81 48.81 123.65 48.98L123.63 48.96ZM124.9 47.38L123.02 45.06C122.9 44.91 122.92 44.69 123.07 44.57C123.22 44.45 123.44 44.47 123.56 44.62L125.32 46.8C125.18 47 125.04 47.19 124.9 47.38ZM126.07 45.67L124.64 43.9C124.52 43.75 124.54 43.53 124.69 43.41C124.84 43.29 125.06 43.31 125.18 43.46L126.46 45.04C126.33 45.25 126.21 45.46 126.08 45.67H126.07Z" fill="white"/>
</g>
<defs>
<clipPath id="clip0_43_114">
<rect width="236.34" height="111.71" fill="white"/>
</clipPath>
</defs>
</svg>
