<svg width="73" height="67" viewBox="0 0 73 67" fill="none" xmlns="http://www.w3.org/2000/svg">
<path d="M70.5951 26.8001L59.0551 6.60012C56.7751 2.60012 52.5251 0.130122 47.9251 0.110122L24.6651 0.000122014C20.0651 -0.019878 15.7951 2.42012 13.4751 6.39012L1.75513 26.4801C-0.564871 30.4601 -0.584868 35.3701 1.69513 39.3701L13.2351 59.5701C15.5151 63.5701 19.7651 66.0401 24.3651 66.0601L47.6251 66.1701C52.2251 66.1901 56.4951 63.7501 58.8151 59.7801L70.5351 39.6901C72.8551 35.7101 72.8751 30.8001 70.5951 26.8001ZM49.6251 43.8101L48.5551 42.4901C48.4351 42.3401 48.4551 42.1201 48.6051 42.0001C48.7551 41.8801 48.9751 41.9001 49.0951 42.0501L49.9651 43.1301C49.8551 43.3601 49.7451 43.5901 49.6251 43.8101ZM50.8751 41.1101C50.7751 41.3501 50.6751 41.6001 50.5751 41.8301L49.7651 40.8301L48.9051 39.7601C48.4951 40.6001 47.9851 41.3901 47.3651 42.1001C47.2751 42.2101 47.1351 42.2401 47.0051 42.2101C46.9551 42.2001 46.9151 42.1701 46.8751 42.1401C46.7351 42.0201 46.7151 41.8001 46.8351 41.6501C48.0451 40.2501 48.8451 38.5501 49.1551 36.7401C49.1851 36.5501 49.3651 36.4201 49.5551 36.4601C49.7351 36.4901 49.8751 36.6701 49.8351 36.8601C49.7051 37.6101 49.4951 38.3501 49.2151 39.0601L49.9451 39.9701C50.9051 37.8601 51.2351 35.5501 50.8751 33.2401L50.1651 28.7101C50.1351 28.5201 50.2651 28.3401 50.4551 28.3101C50.6451 28.2801 50.8251 28.4101 50.8551 28.6001L51.5651 33.1301C51.9651 35.6901 51.5651 38.2501 50.4351 40.5601L50.8751 41.1101ZM27.3251 28.1001C27.2951 27.9401 27.2951 27.7701 27.2751 27.6101L24.1051 31.0301C24.0151 31.1301 23.8751 31.1601 23.7551 31.1301C23.7051 31.1201 23.6551 31.0901 23.6151 31.0501C23.4751 30.9201 23.4651 30.7001 23.5951 30.5601L27.1951 26.6701C27.1351 23.7901 28.2351 20.9501 30.2851 18.8701C30.4151 18.7301 30.6351 18.7301 30.7751 18.8701C30.9151 19.0001 30.9151 19.2201 30.7751 19.3601C28.5451 21.6301 27.5051 24.8601 27.9951 28.0001L28.4151 30.6701C28.4451 30.8601 28.3151 31.0401 28.1251 31.0701C28.0751 31.0701 28.0251 31.0701 27.9751 31.0601C27.8551 31.0201 27.7551 30.9201 27.7351 30.7801L27.3151 28.1101L27.3251 28.1001ZM26.8251 31.0101L25.9151 31.9901C25.8251 32.0901 25.6851 32.1201 25.5651 32.0901C25.5151 32.0801 25.4651 32.0501 25.4251 32.0101C25.2851 31.8801 25.2751 31.6601 25.4051 31.5201L26.3151 30.5401C26.4451 30.4001 26.6651 30.3901 26.8051 30.5201C26.9451 30.6501 26.9551 30.8701 26.8251 31.0101ZM26.5251 23.4901C26.4751 23.6801 26.2851 23.7901 26.1051 23.7401C26.1051 23.7401 26.1051 23.7401 26.0951 23.7401C25.9151 23.6901 25.8151 23.5001 25.8551 23.3201C27.1051 18.4901 31.0751 14.8701 35.9851 14.1001C38.0451 13.7801 40.1651 13.9801 42.1051 14.6901C42.2851 14.7501 42.3751 14.9501 42.3151 15.1301C42.2451 15.3101 42.0351 15.4001 41.8751 15.3401C40.0351 14.6701 38.0351 14.4801 36.0951 14.7901C31.4651 15.5101 27.7051 18.9301 26.5351 23.5001L26.5251 23.4901ZM45.7451 34.0401L45.0951 29.8701C45.0651 29.6801 45.1951 29.5001 45.3851 29.4701C45.5751 29.4401 45.7551 29.5701 45.7851 29.7601L46.4351 33.9301C46.8151 36.3701 45.9551 38.8201 44.1251 40.4801C44.0351 40.5601 43.9051 40.5901 43.7951 40.5601C43.7351 40.5401 43.6851 40.5101 43.6351 40.4601C43.5051 40.3201 43.5151 40.1001 43.6551 39.9701C45.3051 38.4701 46.0851 36.2501 45.7451 34.0401ZM44.7151 34.2001C45.0051 36.0801 44.3451 37.9501 42.9351 39.2201C42.8451 39.3001 42.7151 39.3301 42.6051 39.2901C42.5451 39.2701 42.4951 39.2401 42.4451 39.1901C42.3151 39.0501 42.3251 38.8301 42.4751 38.7001C43.7051 37.5901 44.2951 35.9501 44.0351 34.3001L42.6951 25.6901C42.6151 25.1901 42.4651 24.7101 42.2351 24.2601C42.1451 24.0901 42.2151 23.8801 42.3851 23.8001C42.5551 23.7101 42.7651 23.7801 42.8451 23.9501C43.1051 24.4601 43.2751 25.0101 43.3651 25.5901L44.7051 34.2001H44.7151ZM33.4451 23.1601C34.3151 21.9601 35.5951 21.1701 37.0551 20.9401C38.5551 20.7101 40.0551 21.0901 41.2651 22.0201C41.4151 22.1401 41.4451 22.3501 41.3251 22.5101C41.2051 22.6601 40.9951 22.6901 40.8351 22.5701C39.7751 21.7501 38.4651 21.4201 37.1551 21.6201C35.8851 21.8201 34.7651 22.5101 34.0051 23.5601C33.2451 24.6101 32.9351 25.9001 33.1351 27.1901L33.5551 29.8601C33.5851 30.0501 33.4551 30.2301 33.2651 30.2601C33.2151 30.2601 33.1651 30.2601 33.1151 30.2501C32.9951 30.2101 32.8951 30.1101 32.8751 29.9701L32.4551 27.3001C32.2251 25.8301 32.5751 24.3601 33.4451 23.1601ZM31.0551 27.3301C31.0551 27.3301 30.9651 27.3301 30.9251 27.3201C30.7951 27.2801 30.6851 27.1601 30.6751 27.0201C30.3851 23.4401 32.7951 20.1401 36.2751 19.3401C36.4651 19.3001 36.6451 19.4101 36.6951 19.6001C36.7351 19.7901 36.6251 19.9701 36.4351 20.0201C33.2951 20.7401 31.1151 23.7301 31.3751 26.9701C31.3951 27.1601 31.2451 27.3301 31.0551 27.3401V27.3301ZM42.3251 34.5701L42.0651 32.9301C42.0351 32.7401 42.1651 32.5601 42.3551 32.5301C42.5451 32.5001 42.7251 32.6301 42.7551 32.8201L43.0151 34.4601C43.1751 35.4701 42.9351 36.4901 42.3351 37.3101C41.7351 38.1401 40.8551 38.6801 39.8551 38.8401C39.2951 38.9301 38.7451 38.8901 38.2151 38.7301C37.7951 38.6101 37.3951 38.4101 37.0251 38.1401C36.2051 37.5301 35.6651 36.6401 35.5051 35.6301L34.4951 29.1701C34.4651 28.9801 34.5951 28.8001 34.7851 28.7701C34.9751 28.7401 35.1551 28.8701 35.1851 29.0601L36.1951 35.5201C36.3251 36.3501 36.7651 37.0801 37.4451 37.5801C38.1151 38.0801 38.9351 38.2801 39.7551 38.1501C40.5751 38.0201 41.2951 37.5801 41.7751 36.9001C42.2651 36.2201 42.4651 35.3901 42.3351 34.5601L42.3251 34.5701ZM41.2951 34.7301C41.4751 35.8801 40.7051 36.9601 39.5751 37.1401C39.2751 37.1901 38.9751 37.1601 38.6951 37.0801C37.9451 36.8601 37.3451 36.2101 37.2151 35.3701L35.8751 26.7601C35.6951 25.6101 36.4651 24.5301 37.5851 24.3501C38.0451 24.2801 38.5051 24.3601 38.9151 24.6001C39.0851 24.7001 39.1351 24.9101 39.0451 25.0701C38.9451 25.2301 38.7351 25.2901 38.5751 25.2001C38.3051 25.0401 38.0051 24.9901 37.6951 25.0301C36.9451 25.1501 36.4351 25.8701 36.5551 26.6501L37.8951 35.2601C38.0151 36.0301 38.7251 36.5701 39.4751 36.4501C40.2251 36.3301 40.7351 35.6101 40.6151 34.8301L39.4151 27.1301C39.3851 26.9401 39.5151 26.7601 39.7051 26.7301C39.8951 26.7001 40.0751 26.8301 40.1051 27.0201L41.3051 34.7201L41.2951 34.7301ZM39.5951 35.0001C39.6251 35.1901 39.4951 35.3701 39.3051 35.4001C39.2551 35.4001 39.2051 35.4001 39.1551 35.3901C39.0351 35.3501 38.9351 35.2501 38.9151 35.1101L37.5751 26.5001C37.5451 26.3101 37.6751 26.1301 37.8651 26.1001C38.0551 26.0701 38.2351 26.2001 38.2651 26.3901L39.6051 35.0001H39.5951ZM42.1751 31.3901C42.1251 31.3901 42.0751 31.3901 42.0251 31.3801C41.9051 31.3401 41.8051 31.2401 41.7851 31.1001L40.9851 25.9701C40.7151 24.2501 39.1251 23.0701 37.4351 23.3401C36.6151 23.4701 35.8951 23.9101 35.4151 24.5901C34.9251 25.2701 34.7251 26.1001 34.8551 26.9301L34.9151 27.3201C34.9451 27.5101 34.8151 27.6901 34.6251 27.7201C34.5751 27.7201 34.5251 27.7201 34.4751 27.7101C34.3551 27.6701 34.2551 27.5701 34.2351 27.4301L34.1751 27.0401C34.0151 26.0301 34.2551 25.0101 34.8551 24.1901C35.4551 23.3601 36.3351 22.8201 37.3351 22.6601C39.4051 22.3401 41.3551 23.7801 41.6751 25.8701L42.4751 31.0001C42.5051 31.1901 42.3751 31.3701 42.1851 31.4001L42.1751 31.3901ZM31.2551 28.6301C31.4451 28.6001 31.6251 28.7301 31.6551 28.9201L32.7751 36.0701C32.9051 36.8801 33.1651 37.6401 33.5751 38.3401C33.6651 38.5101 33.6151 38.7201 33.4451 38.8101C33.3551 38.8601 33.2651 38.8701 33.1751 38.8401C33.0951 38.8201 33.0151 38.7601 32.9751 38.6801C32.5351 37.9001 32.2351 37.0601 32.0951 36.1701L30.9751 29.0201C30.9451 28.8301 31.0751 28.6501 31.2651 28.6201L31.2551 28.6301ZM33.7951 35.9101L33.1851 32.0101C33.1551 31.8201 33.2851 31.6401 33.4751 31.6101C33.6651 31.5801 33.8451 31.7101 33.8751 31.9001L34.4851 35.8001C34.6851 37.0901 35.3751 38.2201 36.4151 38.9901C37.4651 39.7601 38.7351 40.0801 40.0151 39.8801C40.3351 39.8301 40.6451 39.7501 40.9451 39.6401C41.1251 39.5701 41.3251 39.6601 41.3951 39.8401C41.4651 40.0201 41.3751 40.2201 41.1951 40.2901C40.8551 40.4201 40.4951 40.5101 40.1351 40.5701C39.3251 40.7001 38.5051 40.6401 37.7351 40.4101C37.1251 40.2301 36.5451 39.9401 36.0151 39.5501C34.8251 38.6701 34.0351 37.3801 33.8051 35.9101H33.7951ZM45.1551 28.0501C45.1051 28.0501 45.0551 28.0501 45.0051 28.0401C44.8851 28.0001 44.7851 27.9001 44.7651 27.7601L44.4051 25.4401C43.9351 22.4501 41.5251 20.1701 38.5351 19.8701C38.3451 19.8501 38.2051 19.6801 38.2251 19.4901C38.2451 19.3001 38.4151 19.1601 38.6051 19.1801C41.9151 19.5001 44.5751 22.0301 45.0851 25.3301L45.4451 27.6501C45.4751 27.8401 45.3451 28.0201 45.1551 28.0501ZM44.5151 20.8501C44.4251 20.9301 44.2951 20.9601 44.1851 20.9301C44.1251 20.9101 44.0751 20.8801 44.0251 20.8301C42.1351 18.7601 39.3651 17.7801 36.6251 18.2101C35.8951 18.3201 35.1851 18.5301 34.5151 18.8401C34.4351 18.8801 34.3551 18.8801 34.2751 18.8601C34.1851 18.8301 34.1051 18.7701 34.0551 18.6701C33.9751 18.5001 34.0551 18.2901 34.2251 18.2101C34.9451 17.8801 35.7151 17.6601 36.5151 17.5301C39.4851 17.0601 42.4851 18.1301 44.5351 20.3601C44.6651 20.5001 44.6551 20.7201 44.5151 20.8501ZM29.6551 25.5901C29.6351 25.7801 29.4651 25.9201 29.2751 25.9001C29.2551 25.9001 29.2351 25.9001 29.2151 25.8901C29.0551 25.8401 28.9551 25.6901 28.9651 25.5201C29.2351 22.9001 30.6251 20.5401 32.7851 19.0301C32.9451 18.9201 33.1551 18.9601 33.2651 19.1201C33.3751 19.2801 33.3351 19.4901 33.1751 19.6001C31.1851 20.9901 29.8951 23.1801 29.6551 25.5901ZM32.0451 18.2801C31.9551 18.3501 31.8451 18.3601 31.7451 18.3301C31.6751 18.3101 31.6051 18.2701 31.5651 18.2001C31.4551 18.0401 31.4851 17.8301 31.6451 17.7201C33.0151 16.7201 34.5651 16.0901 36.2551 15.8201C37.0551 15.6901 37.8651 15.6601 38.6651 15.7201C38.8551 15.7301 38.9951 15.9001 38.9851 16.0901C38.9751 16.2801 38.8051 16.4201 38.6151 16.4101C37.8651 16.3601 37.1051 16.3901 36.3551 16.5101C34.7851 16.7601 33.3351 17.3501 32.0451 18.2801ZM40.7751 16.8101C40.5951 16.7501 40.4851 16.5601 40.5451 16.3801C40.6051 16.2001 40.7951 16.0901 40.9751 16.1501C43.5051 16.9201 45.6651 18.5901 47.0451 20.8501C47.1451 21.0101 47.0951 21.2301 46.9251 21.3301C46.8351 21.3801 46.7351 21.3901 46.6451 21.3701C46.5651 21.3501 46.4951 21.2901 46.4451 21.2201C45.1551 19.1001 43.1351 17.5401 40.7651 16.8201L40.7751 16.8101ZM43.5351 16.1101C43.3651 16.0201 43.3051 15.8101 43.3951 15.6401C43.4851 15.4701 43.7051 15.4101 43.8651 15.5001C47.2851 17.3901 49.5951 20.6801 50.1951 24.5301L50.5651 26.8901C50.5951 27.0801 50.4651 27.2601 50.2751 27.2901C50.2251 27.2901 50.1751 27.2901 50.1251 27.2801C50.0051 27.2401 49.9051 27.1401 49.8851 27.0001L49.5151 24.6401C48.9451 21.0001 46.7651 17.8901 43.5351 16.1101ZM49.2651 18.5501C49.1751 18.6201 49.0651 18.6301 48.9651 18.6001C48.8951 18.5801 48.8351 18.5401 48.7851 18.4701C46.1051 14.8101 41.8351 12.7401 37.3451 12.9301C37.1551 12.9301 36.9951 12.7901 36.9851 12.6001C36.9851 12.4101 37.1251 12.2501 37.3151 12.2401C42.0351 12.0501 46.5351 14.2201 49.3451 18.0601C49.4551 18.2101 49.4251 18.4301 49.2751 18.5401L49.2651 18.5501ZM29.0551 28.1101C29.0251 27.9201 29.1551 27.7401 29.3451 27.7101C29.5351 27.6801 29.7151 27.8101 29.7451 28.0001L31.0451 36.3401C31.7051 40.5501 35.5351 43.6501 39.7651 43.3901C39.9551 43.3801 40.1251 43.5201 40.1351 43.7101C40.1451 43.9001 40.0051 44.0701 39.8151 44.0801C38.7651 44.1401 37.7451 44.0201 36.7751 43.7301C33.5151 42.7701 30.9151 39.9701 30.3651 36.4401L29.0651 28.1001L29.0551 28.1101ZM40.3651 42.2801C39.2951 42.4501 38.2151 42.3701 37.2051 42.0701C36.1651 41.7601 35.1951 41.2201 34.3651 40.4601C34.2251 40.3301 34.2151 40.1101 34.3451 39.9701C34.4751 39.8301 34.6951 39.8201 34.8351 39.9501C36.3151 41.3001 38.2951 41.9001 40.2551 41.5901C41.0151 41.4701 41.7351 41.2201 42.4051 40.8601C42.5751 40.7701 42.7851 40.8301 42.8751 41.0001C42.9651 41.1701 42.9051 41.3801 42.7351 41.4701C41.9951 41.8801 41.1951 42.1501 40.3651 42.2801ZM41.3551 43.1301C45.4851 42.0501 48.1051 38.0301 47.4351 33.7801L46.0951 25.1701C45.9651 24.3401 45.7151 23.5401 45.3451 22.7901C45.2651 22.6201 45.3351 22.4101 45.5051 22.3301C45.6751 22.2501 45.8851 22.3201 45.9651 22.4901C46.3651 23.3001 46.6351 24.1701 46.7751 25.0701L48.1151 33.6801C48.8351 38.2801 46.0051 42.6301 41.5251 43.8101C41.4651 43.8301 41.3951 43.8201 41.3351 43.8101C41.2251 43.7801 41.1251 43.6901 41.0951 43.5701C41.0451 43.3801 41.1551 43.2001 41.3451 43.1501L41.3551 43.1301ZM49.6251 34.9301C49.6251 34.9301 49.5451 34.9301 49.5051 34.9201C49.3651 34.8801 49.2651 34.7601 49.2551 34.6001C49.2351 34.2301 49.1951 33.8701 49.1451 33.5101L47.8051 24.9001C47.7051 24.2901 47.5551 23.6801 47.3551 23.1001C47.2951 22.9201 47.3851 22.7201 47.5651 22.6601C47.7451 22.6001 47.9451 22.6901 48.0051 22.8701C48.2251 23.4901 48.3851 24.1301 48.4851 24.7901L49.8251 33.4001C49.8851 33.7801 49.9251 34.1701 49.9451 34.5701C49.9451 34.7601 49.8051 34.9201 49.6151 34.9301H49.6251ZM52.7251 35.2101C52.7251 34.4601 52.6851 33.7101 52.5651 32.9701L51.2251 24.3601C51.0051 22.9801 50.5851 21.6501 49.9751 20.4101C49.8951 20.2401 49.9551 20.0301 50.1351 19.9501C50.3051 19.8701 50.5151 19.9301 50.5951 20.1101C51.2451 21.4101 51.6851 22.8101 51.9151 24.2601L53.2351 32.7001C53.1051 33.5201 52.9351 34.3601 52.7351 35.2101H52.7251ZM45.7951 12.6101C47.9951 13.8701 49.8151 15.6101 51.1651 17.6501C52.7051 20.5601 53.6351 24.2001 53.6051 28.3501L52.9351 24.0901C52.2151 19.5001 49.4851 15.5301 45.4551 13.2001C45.2851 13.1001 45.2351 12.8901 45.3251 12.7301C45.4251 12.5601 45.6251 12.5101 45.7951 12.6001V12.6101ZM34.7351 10.8101C34.9651 10.7601 35.2051 10.7201 35.4351 10.6801C38.3151 10.2301 41.2551 10.5801 43.9451 11.7001C44.1251 11.7701 44.2051 11.9801 44.1351 12.1501C44.0651 12.3301 43.8551 12.4101 43.6851 12.3401C41.1151 11.2801 38.3051 10.9401 35.5451 11.3701C33.2951 11.7201 31.2351 12.5801 29.4451 13.8001C31.1451 12.4501 32.9451 11.4501 34.7351 10.8101ZM24.5651 19.1601C23.2151 21.6201 22.5251 24.4701 22.7151 27.4301C22.7251 27.6201 22.5851 27.7901 22.3951 27.8001C22.3551 27.8001 22.3151 27.8001 22.2751 27.7901C22.1351 27.7501 22.0351 27.6301 22.0251 27.4801C21.9251 26.0001 22.0451 24.5401 22.3451 23.1401C23.0051 21.7001 23.7551 20.3701 24.5651 19.1701V19.1601ZM19.5651 32.0001C19.6151 31.7201 19.6651 31.4301 19.7351 31.1501L19.8251 31.7301L20.7251 30.7601L20.4751 29.1901C20.4451 28.9801 20.4151 28.7701 20.3951 28.5601C20.4451 28.4101 20.4851 28.2501 20.5351 28.1001C20.5851 27.9401 20.6251 27.7701 20.6751 27.6101C20.7651 27.3001 20.8651 27.0001 20.9651 26.7101C20.9751 27.4901 21.0451 28.2901 21.1651 29.0801L21.3251 30.1101L23.7751 27.4701C23.2651 20.4001 28.0551 14.0001 34.9851 12.5401C35.1751 12.5001 35.3551 12.6201 35.3951 12.8101C35.4351 13.0001 35.3151 13.1801 35.1251 13.2201C28.7551 14.5601 24.2951 20.3001 24.4451 26.7601L26.0151 25.0701C26.1451 24.9301 26.3651 24.9201 26.5051 25.0501C26.6451 25.1801 26.6551 25.4001 26.5251 25.5401L19.3751 33.2601C19.4351 32.8501 19.5051 32.4401 19.5851 32.0201L19.5651 32.0001ZM19.1251 35.3901L22.3451 31.9201C22.4751 31.7801 22.6951 31.7701 22.8351 31.9001C22.9751 32.0301 22.9851 32.2501 22.8551 32.3901L19.0751 36.4701C19.0851 36.1101 19.1051 35.7501 19.1351 35.3901H19.1251ZM19.0651 38.3701L24.3051 32.7201C24.4351 32.5801 24.6551 32.5701 24.7951 32.7001C24.9351 32.8301 24.9451 33.0501 24.8151 33.1901L19.1251 39.3301C19.1051 39.0101 19.0851 38.6901 19.0751 38.3701H19.0651ZM22.2051 38.9101L19.4451 41.8901C19.3951 41.6001 19.3451 41.3201 19.3051 41.0201L21.6951 38.4401C21.8251 38.3001 22.0451 38.2901 22.1851 38.4201C22.3251 38.5501 22.3351 38.7701 22.2051 38.9101ZM23.0151 37.5301C22.8751 37.4001 22.8651 37.1801 22.9951 37.0401L27.9851 31.6501C28.1151 31.5101 28.3351 31.5001 28.4751 31.6301C28.6151 31.7601 28.6251 31.9801 28.4951 32.1201L23.5051 37.5101C23.4151 37.6101 23.2751 37.6401 23.1551 37.6101C23.1051 37.6001 23.0551 37.5701 23.0151 37.5301ZM19.7751 43.4301L25.3651 37.4001L27.3951 35.2101C27.5251 35.0701 27.7451 35.0601 27.8851 35.1901C28.0251 35.3201 28.0351 35.5401 27.9051 35.6801L25.8751 37.8701L19.9951 44.2101C19.9151 43.9501 19.8451 43.6901 19.7751 43.4301ZM23.8451 42.9701L20.7351 46.3201C20.6351 46.0901 20.5451 45.8501 20.4551 45.6001L23.3351 42.4901C23.4651 42.3501 23.6851 42.3401 23.8251 42.4701C23.9651 42.6001 23.9751 42.8201 23.8451 42.9601V42.9701ZM24.5551 41.7001C24.4151 41.5701 24.4051 41.3501 24.5351 41.2101L28.6551 36.7601C28.6551 36.7601 28.6551 36.7401 28.6551 36.7301L28.2351 34.0601C28.2051 33.8701 28.3351 33.6901 28.5251 33.6601C28.7151 33.6301 28.8951 33.7601 28.9251 33.9501L29.3451 36.6201C29.4851 37.5301 29.7551 38.4101 30.1351 39.2501C30.2151 39.4201 30.1351 39.6301 29.9651 39.7101C29.8851 39.7501 29.8051 39.7501 29.7251 39.7301C29.6351 39.7001 29.5551 39.6401 29.5051 39.5401C29.2251 38.9201 29.0051 38.2701 28.8451 37.6001L25.0651 41.6801C24.9751 41.7801 24.8351 41.8101 24.7151 41.7801C24.6651 41.7701 24.6151 41.7401 24.5751 41.7001H24.5551ZM21.3251 47.5901L26.1251 42.4101L28.3351 40.0201C28.4651 39.8801 28.6851 39.8701 28.8251 40.0001C28.9651 40.1301 28.9751 40.3501 28.8451 40.4901L26.6351 42.8801L21.6651 48.2401C21.5451 48.0301 21.4351 47.8101 21.3251 47.5901ZM24.0951 48.5301L22.7651 49.9701C22.6251 49.7801 22.4951 49.5901 22.3551 49.3901L23.5851 48.0601C23.7151 47.9201 23.9351 47.9101 24.0751 48.0401C24.2151 48.1701 24.2251 48.3901 24.0951 48.5301ZM24.7651 47.5201C24.7651 47.5201 24.6651 47.4801 24.6251 47.4401C24.4851 47.3101 24.4751 47.0901 24.6051 46.9501L30.4051 40.6901C30.5351 40.5501 30.7551 40.5401 30.8951 40.6701C31.0351 40.8001 31.0451 41.0201 30.9151 41.1601L25.1151 47.4201C25.0251 47.5201 24.8851 47.5501 24.7651 47.5201ZM24.0351 51.5101C23.8751 51.3401 23.7251 51.1701 23.5751 50.9901L29.2551 44.8601L30.4251 43.5901C30.5551 43.4501 30.7751 43.4401 30.9151 43.5701C31.0551 43.7001 31.0651 43.9201 30.9351 44.0601L29.7651 45.3301L24.0351 51.5101ZM26.9051 51.3301L25.4851 52.8601C25.3051 52.7201 25.1351 52.5701 24.9551 52.4101L26.3951 50.8601C26.5251 50.7201 26.7451 50.7101 26.8851 50.8401C27.0251 50.9701 27.0351 51.1901 26.9051 51.3301ZM27.7351 50.1501C27.7351 50.1501 27.6351 50.1101 27.5951 50.0701C27.4551 49.9401 27.4451 49.7201 27.5751 49.5801L32.9451 43.7801C32.4251 43.4001 31.9451 42.9801 31.4951 42.5101C31.3651 42.3701 31.3651 42.1501 31.5051 42.0201C31.6451 41.8901 31.8651 41.8901 31.9951 42.0301C32.8551 42.9301 33.8551 43.6501 34.9651 44.1801C35.1351 44.2601 35.2151 44.4701 35.1251 44.6401C35.0551 44.8001 34.8751 44.8701 34.7151 44.8201C34.6951 44.8201 34.6851 44.8101 34.6651 44.8001C34.2651 44.6101 33.8951 44.3901 33.5251 44.1601L28.0751 50.0401C27.9851 50.1401 27.8451 50.1701 27.7251 50.1401L27.7351 50.1501ZM26.5351 53.6201L33.9851 45.5801C34.1151 45.4401 34.3351 45.4301 34.4751 45.5601C34.6151 45.6901 34.6251 45.9101 34.4951 46.0501L27.1351 53.9901C26.9351 53.8701 26.7351 53.7501 26.5351 53.6201ZM32.9551 50.6201L29.0151 54.8801C28.7851 54.8001 28.5551 54.7101 28.3251 54.6101L32.4451 50.1601C32.5751 50.0201 32.7951 50.0101 32.9351 50.1401C33.0751 50.2701 33.0851 50.4901 32.9551 50.6301V50.6201ZM30.3951 55.2801L38.2851 46.7601C38.4151 46.6201 38.6351 46.6101 38.7751 46.7401C38.9151 46.8701 38.9251 47.0901 38.7951 47.2301L31.1951 55.4401C30.9251 55.4001 30.6651 55.3401 30.3951 55.2801ZM36.8251 52.2801L34.1651 55.1501L34.4651 55.5201C34.2351 55.5401 33.9951 55.5601 33.7651 55.5701C33.4451 55.5901 33.1251 55.5901 32.8051 55.5901L36.3051 51.8101C36.4351 51.6701 36.6551 51.6601 36.7951 51.7901C36.9351 51.9201 36.9451 52.1401 36.8151 52.2801H36.8251ZM35.9351 55.2901L35.7651 55.0801C35.6451 54.9301 35.6651 54.7101 35.8151 54.5901C35.9651 54.4701 36.1851 54.4901 36.3051 54.6401L36.6851 55.1101C36.4351 55.1801 36.1851 55.2301 35.9351 55.2901ZM38.0051 54.7001L37.1351 53.6201C37.0151 53.4701 37.0351 53.2501 37.1851 53.1301C37.3351 53.0101 37.5551 53.0301 37.6751 53.1801L38.6851 54.4301C38.4651 54.5201 38.2351 54.6101 38.0051 54.6901V54.7001ZM39.8951 53.8801L37.5251 50.9501C37.4051 50.8001 37.4251 50.5801 37.5751 50.4601C37.7251 50.3401 37.9451 50.3601 38.0651 50.5101L40.5251 53.5501C40.3151 53.6701 40.1051 53.7701 39.9051 53.8801H39.8951ZM41.6351 52.8801L40.1151 51.0001C39.9951 50.8501 40.0151 50.6301 40.1651 50.5101C40.3151 50.3901 40.5351 50.4101 40.6551 50.5601L42.2151 52.4901C42.0251 52.6201 41.8351 52.7501 41.6351 52.8801ZM44.7351 50.4101L42.7851 48.0101C42.6651 47.8601 42.6851 47.6401 42.8351 47.5201C42.9851 47.4001 43.2051 47.4201 43.3251 47.5701L45.2251 49.9201C45.0651 50.0901 44.8951 50.2501 44.7251 50.4101H44.7351ZM46.1151 48.9601L43.2251 45.3801L40.9751 47.8101L43.7851 51.2801C43.6051 51.4301 43.4251 51.5801 43.2551 51.7201L40.5051 48.3301L38.8651 50.1001C38.7751 50.2001 38.6351 50.2301 38.5151 50.2001C38.4651 50.1901 38.4151 50.1601 38.3751 50.1201C38.2351 49.9901 38.2251 49.7701 38.3551 49.6301L42.2551 45.4201C41.8151 45.5501 41.3651 45.6501 40.9151 45.7201C39.7851 45.9001 38.6451 45.8901 37.5351 45.7101L34.2551 49.2501C34.1651 49.3501 34.0251 49.3801 33.9051 49.3501C33.8551 49.3401 33.8051 49.3101 33.7651 49.2701C33.6251 49.1401 33.6151 48.9201 33.7451 48.7801L36.7551 45.5401C36.6551 45.5201 36.5551 45.5001 36.4551 45.4701C36.2751 45.4201 36.1651 45.2301 36.2151 45.0501C36.2651 44.8701 36.4551 44.7601 36.6451 44.8101C38.0051 45.1801 39.4151 45.2601 40.8151 45.0401C42.5851 44.7601 44.2451 44.0201 45.6251 42.8801C45.7751 42.7601 45.9951 42.7801 46.1151 42.9301C46.2351 43.0801 46.2151 43.3001 46.0651 43.4201C45.3451 44.0101 44.5551 44.5101 43.7151 44.8901L46.5951 48.4501C46.4451 48.6301 46.2951 48.8101 46.1351 48.9801L46.1151 48.9601ZM47.3851 47.3801L45.5051 45.0601C45.3851 44.9101 45.4051 44.6901 45.5551 44.5701C45.7051 44.4501 45.9251 44.4701 46.0451 44.6201L47.8051 46.8001C47.6651 47.0001 47.5251 47.1901 47.3851 47.3801ZM48.5551 45.6701L47.1251 43.9001C47.0051 43.7501 47.0251 43.5301 47.1751 43.4101C47.3251 43.2901 47.5451 43.3101 47.6651 43.4601L48.9451 45.0401C48.8151 45.2501 48.6951 45.4601 48.5651 45.6701H48.5551Z" fill="white"/>
</svg>
