<svg width="294" height="150" viewBox="0 0 294 150" fill="none" xmlns="http://www.w3.org/2000/svg">
<path d="M272.362 69.9751C272.532 68.6334 272.617 67.2916 272.617 65.8989C272.617 47.454 257.671 32.5079 239.226 32.5079C233.128 32.5079 227.438 34.1384 222.513 36.9917C216.076 20.6019 200.127 8.98467 181.445 8.98467C168.621 8.98467 157.089 14.4536 149.021 23.2005C141.565 9.39229 126.976 0 110.178 0C88.5398 0 70.5533 15.5915 66.7998 36.1425C63.5048 35.1404 60.006 34.5969 56.3883 34.5969C36.8902 34.5969 21.0437 50.2734 20.772 69.7034C8.35634 77.1595 0 90.7469 0 106.22C0 129.624 19.1414 148.765 42.546 148.765H250.13C273.534 148.765 292.676 129.624 292.676 106.22C292.676 90.9507 284.523 77.4992 272.362 69.9921V69.9751Z" fill="#E41B21"/>
<path opacity="0.2" d="M273.398 70.5029C273.568 69.1611 273.653 67.8194 273.653 66.4267C273.653 54.7755 267.674 44.534 258.639 38.5555C240.279 71.1143 212.866 97.9834 180.052 115.596C153.896 129.931 125.175 139.578 96.2847 149.276H251.183C274.587 149.276 293.729 130.135 293.729 106.73C293.729 91.4615 285.576 78.0099 273.415 70.5029H273.398Z" fill="#760000"/>
</svg>
