<svg width="254" height="129" viewBox="0 0 254 129" fill="none" xmlns="http://www.w3.org/2000/svg">
<path d="M235.524 60.5106C235.67 59.3503 235.744 58.19 235.744 56.9857C235.744 41.0356 222.819 28.111 206.869 28.111C201.596 28.111 196.676 29.5209 192.417 31.9884C186.85 17.8154 173.059 7.76943 156.903 7.76943C145.814 7.76943 135.842 12.4987 128.865 20.0625C122.418 8.12192 109.801 0 95.2757 0C76.5643 0 61.0105 13.4827 57.7647 31.254C54.9154 30.3875 51.8898 29.9175 48.7614 29.9175C31.9005 29.9175 18.1974 43.4736 17.9624 60.2756C7.22609 66.7232 0 78.4728 0 91.8527C0 112.091 16.5524 128.644 36.7914 128.644H216.298C236.537 128.644 253.089 112.091 253.089 91.8527C253.089 78.649 246.04 67.0169 235.524 60.5253V60.5106Z" fill="#E41B21"/>
</svg>
