<svg width="199" height="444" viewBox="0 0 199 444" fill="none" xmlns="http://www.w3.org/2000/svg">
<path d="M178.024 390.593V390.644H5.19065V37.949H0.0953217V395.739L163.5 390.644L167.5 387.5L178.024 390.593Z" fill="#E41B21"/>
<path d="M41.0953 139H36V322.43H41.0953V139Z" fill="#FAB61D"/>
<path d="M105.095 0H100V277.761H105.095V0Z" fill="#6BB42D"/>
<path d="M60 408.695H73H193.222V56H198.317V413.79H63.5L60 408.695Z" fill="#007069"/>
<path d="M100.389 444C149.881 444 190.002 403.879 190.002 354.388C190.002 304.897 149.881 264.776 100.389 264.776C50.8971 264.776 10.776 304.897 10.776 354.388C10.776 403.879 50.8971 444 100.389 444Z" fill="#01122C"/>
<path d="M100.188 435.983C145.69 435.983 182.577 399.096 182.577 353.595C182.577 308.093 145.69 271.207 100.188 271.207C54.6858 271.207 17.7991 308.093 17.7991 353.595C17.7991 399.096 54.6858 435.983 100.188 435.983Z" fill="#EAEAEA"/>
<path opacity="0.1" d="M100.188 271.207C145.689 271.207 182.577 308.095 182.577 353.595H17.7991C17.7991 308.095 54.6874 271.207 100.188 271.207Z" fill="#1D1D1B"/>
<path d="M125.524 354.871H119.294V334.271C119.294 325.281 111.977 317.974 102.996 317.974C94.0147 317.974 86.6975 325.291 86.6975 334.271V354.871H80.4675V334.271C80.4675 321.849 90.5735 311.744 102.996 311.744C115.418 311.744 125.524 321.849 125.524 334.271V354.871Z" fill="#FAB61D"/>
<path d="M132.642 345.105H73.33C71.9986 345.105 70.9193 346.185 70.9193 347.516V386.058C70.9193 387.39 71.9986 388.469 73.33 388.469H132.642C133.974 388.469 135.053 387.39 135.053 386.058V347.516C135.053 346.185 133.974 345.105 132.642 345.105Z" fill="#FAB61D"/>
<path d="M135.053 387.023V372.908C122.99 382.787 105.605 386.503 95.7542 387.864C96.0283 388.223 96.4632 388.469 96.9642 388.469H133.569C134.391 388.469 135.063 387.826 135.063 387.023H135.053Z" fill="#FAB61D"/>
<path d="M108.29 360.25C108.29 357.319 105.917 354.947 102.986 354.947C100.056 354.947 97.6827 357.319 97.6827 360.25C97.6827 361.999 98.5336 363.54 99.8287 364.504L98.146 376.491H107.827L106.144 364.504C107.448 363.54 108.29 361.999 108.29 360.25Z" fill="#58595A"/>
<path d="M72.9424 352.715V369.732C73.3867 362.509 76.809 346.779 98.1932 346.779H78.7753C75.5705 346.779 72.9424 349.445 72.9424 352.715Z" fill="#FFDC54"/>
<path d="M100 444C49.8202 444 9 403.404 9 353.5C9 303.596 49.8202 263 100 263C150.18 263 191 303.596 191 353.5C191 403.404 150.18 444 100 444ZM100 265.826C51.3928 265.826 11.842 305.16 11.842 353.5C11.842 401.84 51.3928 441.174 100 441.174C148.607 441.174 188.158 401.84 188.158 353.5C188.158 305.16 148.607 265.826 100 265.826Z" fill="white"/>
</svg>
